<svg width="176" height="176" viewBox="0 0 176 176" fill="none" xmlns="http://www.w3.org/2000/svg">
<path d="M87.8797 138.317C115.88 138.317 138.58 115.617 138.58 87.5168C138.58 59.4168 115.78 36.7168 87.8797 36.7168C59.8797 36.7168 37.1797 59.4168 37.1797 87.5168C37.1797 115.617 59.8797 138.317 87.8797 138.317Z" fill="#EAEEF9"/>
<path d="M135.28 54.2176C137.544 54.2176 139.38 52.3819 139.38 50.1176C139.38 47.8532 137.544 46.0176 135.28 46.0176C133.015 46.0176 131.18 47.8532 131.18 50.1176C131.18 52.3819 133.015 54.2176 135.28 54.2176Z" fill="#E7EBF6"/>
<path d="M141.277 38.2172C142.823 38.2172 144.077 36.9636 144.077 35.4172C144.077 33.8708 142.823 32.6172 141.277 32.6172C139.73 32.6172 138.477 33.8708 138.477 35.4172C138.477 36.9636 139.73 38.2172 141.277 38.2172Z" fill="#E7EBF6"/>
<path d="M39.8781 54.1176C41.4245 54.1176 42.6781 52.864 42.6781 51.3176C42.6781 49.7712 41.4245 48.5176 39.8781 48.5176C38.3317 48.5176 37.0781 49.7712 37.0781 51.3176C37.0781 52.864 38.3317 54.1176 39.8781 54.1176Z" fill="#E7EBF6"/>
<path d="M22.7781 108.117C25.65 108.117 27.9781 105.789 27.9781 102.917C27.9781 100.045 25.65 97.7168 22.7781 97.7168C19.9062 97.7168 17.5781 100.045 17.5781 102.917C17.5781 105.789 19.9062 108.117 22.7781 108.117Z" fill="#E7EBF6"/>
<g filter="url(#filter0_d)">
<path d="M122.108 127.159L54.4722 127.644C50.5682 127.661 47.3847 124.514 47.3324 120.636L46.8083 55.9246C46.7864 52.0198 49.9296 48.8394 53.8074 48.7915L121.443 48.3062C125.347 48.2888 128.531 51.436 128.583 55.3146L129.107 120.025C129.129 123.93 125.986 127.111 122.108 127.159Z" fill="url(#paint0_linear)"/>
</g>
<path d="M118.301 117.497L58.8432 117.947C57.1614 117.962 55.8077 116.634 55.7908 114.952L55.3397 61.4715C55.3229 59.7893 56.6488 58.4368 58.3307 58.4219L117.788 57.9719C119.47 57.957 120.824 59.2846 120.841 60.9668L121.292 114.447C121.309 116.129 119.983 117.482 118.301 117.497Z" fill="#EAEEF9"/>
<path d="M89.5489 97.4248L67.859 97.5755L78.611 85.1999L89.5489 97.4248Z" fill="#B0B7C4"/>
<path d="M107.535 97.2781L76.2682 97.5005L91.7531 79.7288L107.535 97.2781Z" fill="#CED6E2"/>
<path d="M78.589 79.7576C80.3039 78.2827 80.497 75.6953 79.0205 73.9784C77.5439 72.2616 74.9567 72.0655 73.2418 73.5404C71.5269 75.0153 71.3337 77.6027 72.8103 79.3195C74.2869 81.0364 76.8741 81.2325 78.589 79.7576Z" fill="#B0B7C4"/>
<defs>
<filter id="filter0_d" x="24.8086" y="37.3057" width="126.299" height="123.338" filterUnits="userSpaceOnUse" color-interpolation-filters="sRGB">
<feFlood flood-opacity="0" result="BackgroundImageFix"/>
<feColorMatrix in="SourceAlpha" type="matrix" values="0 0 0 0 0 0 0 0 0 0 0 0 0 0 0 0 0 0 127 0" result="hardAlpha"/>
<feOffset dy="11"/>
<feGaussianBlur stdDeviation="11"/>
<feColorMatrix type="matrix" values="0 0 0 0 0.397708 0 0 0 0 0.47749 0 0 0 0 0.575 0 0 0 0.27 0"/>
<feBlend mode="normal" in2="BackgroundImageFix" result="effect1_dropShadow"/>
<feBlend mode="normal" in="SourceGraphic" in2="effect1_dropShadow" result="shape"/>
</filter>
<linearGradient id="paint0_linear" x1="51.344" y1="45.4576" x2="123.655" y2="129.534" gradientUnits="userSpaceOnUse">
<stop stop-color="#FDFEFF"/>
<stop offset="0.9964" stop-color="#ECF0F5"/>
</linearGradient>
</defs>
</svg>
