<svg width="23" height="24" viewBox="0 0 23 24" fill="none" xmlns="http://www.w3.org/2000/svg">
    <g clip-path="url(#clip0_9229_196006)">
        <path d="M3.38011 10.0387C3.37877 9.08079 3.56704 8.13208 3.93406 7.24727C4.30109 6.36245 4.83961 5.55903 5.51859 4.88332C6.19756 4.2076 7.00357 3.67295 7.89014 3.31019C8.77671 2.94743 9.72631 2.76372 10.6842 2.76967C14.6812 2.79939 17.8784 6.12173 17.8784 10.13V10.8464C17.8784 14.4624 18.6349 16.5607 19.3012 17.7076C19.373 17.8301 19.4112 17.9694 19.412 18.1114C19.4127 18.2534 19.376 18.3931 19.3055 18.5164C19.2351 18.6397 19.1333 18.7423 19.0106 18.8137C18.8879 18.8851 18.7485 18.923 18.6064 18.9233H2.65122C2.50919 18.923 2.36977 18.8851 2.24702 18.8137C2.12427 18.7422 2.02253 18.6397 1.95207 18.5163C1.88162 18.393 1.84493 18.2533 1.84572 18.1113C1.8465 17.9692 1.88473 17.8299 1.95654 17.7074C2.62322 16.5605 3.3801 14.4622 3.3801 10.8464L3.38011 10.0387Z" stroke="currentColor" stroke-width="2" stroke-linecap="round" stroke-linejoin="round"/>
        <path d="M7.39844 18.9219V19.7296C7.39844 20.5864 7.73882 21.4082 8.34471 22.0141C8.95059 22.62 9.77235 22.9603 10.6292 22.9603C11.4861 22.9603 12.3078 22.62 12.9137 22.0141C13.5196 21.4082 13.86 20.5864 13.86 19.7296V18.9219" stroke="currentColor" stroke-width="2" stroke-linecap="round" stroke-linejoin="round"/>
    </g>
    <defs>
        <clipPath id="clip0_9229_196006">
            <rect width="22.1538" height="22.1538" fill="white" transform="translate(0 1.84766)"/>
        </clipPath>
    </defs>
</svg>
