<svg width="25" height="25" viewBox="0 0 25 25" fill="none" xmlns="http://www.w3.org/2000/svg">
<path d="M7.5 4.16797L5 7.5013V19.168C5 19.61 5.17559 20.0339 5.48816 20.3465C5.80072 20.659 6.22464 20.8346 6.66667 20.8346H18.3333C18.7754 20.8346 19.1993 20.659 19.5118 20.3465C19.8244 20.0339 20 19.61 20 19.168V7.5013L17.5 4.16797H7.5Z" stroke="#1A202C" stroke-width="1.6" stroke-linecap="round" stroke-linejoin="round"/>
<path d="M15.8327 10.832C15.8327 11.7161 15.4815 12.5639 14.8564 13.1891C14.2313 13.8142 13.3834 14.1654 12.4993 14.1654C11.6153 14.1654 10.7674 13.8142 10.1423 13.1891C9.5172 12.5639 9.16602 11.7161 9.16602 10.832" stroke="#1A202C" stroke-width="1.6" stroke-linecap="round" stroke-linejoin="round"/>
<path d="M5 7.5H20" stroke="#1A202C" stroke-width="1.6" stroke-linecap="round" stroke-linejoin="round"/>
</svg>
