<svg width="24" height="24" viewBox="0 0 24 24" fill="none" xmlns="http://www.w3.org/2000/svg">
    <path fill-rule="evenodd" clip-rule="evenodd" d="M5.63731 5.63418C9.14811 2.12209 14.8532 2.12209 18.364 5.63327C21.8815 9.1511 21.8754 14.8511 18.364 18.3628C15.6148 21.1123 11.5424 21.7094 8.20599 20.1664C8.19073 20.1593 8.17531 20.1527 8.15972 20.1464L8.09223 20.1192C7.60907 19.924 6.99483 19.676 6.36519 19.676L6.35926 19.676C5.91572 19.6786 5.49 19.7859 5.14422 19.8915C4.96685 19.9456 4.79235 20.0053 4.63519 20.0593L4.60355 20.0702C4.45399 20.1216 4.32123 20.1672 4.1924 20.2077C3.94141 20.2865 3.77829 20.3209 3.67092 20.3287C3.67854 20.2208 3.71295 20.057 3.79177 19.8046C3.83139 19.6777 3.87588 19.5472 3.92591 19.4004L3.92593 19.4004L3.92596 19.4003L3.926 19.4002L3.93972 19.3599C3.99353 19.202 4.05286 19.0268 4.1066 18.8484C4.21143 18.5005 4.31708 18.0726 4.31708 17.6266C4.31708 16.9905 4.07165 16.3805 3.87294 15.8865L3.85405 15.8396C3.84766 15.8237 3.84087 15.808 3.83368 15.7924C2.29008 12.4568 2.88788 8.38302 5.63711 5.63439L5.63731 5.63418ZM19.7783 4.21913C15.4865 -0.073158 8.51494 -0.0732274 4.22305 4.22002L4.22284 4.22023C0.866572 7.57594 0.138122 12.5429 2.0075 16.6083C2.23883 17.1854 2.31708 17.4332 2.31708 17.6266C2.31708 17.7775 2.27876 17.9822 2.19165 18.2714C2.14942 18.4115 2.10077 18.5559 2.04661 18.7148L2.03191 18.7579L2.03191 18.758C1.98345 18.9 1.93049 19.0553 1.88264 19.2086C1.78128 19.5333 1.66924 19.9485 1.66924 20.3734C1.66924 20.8337 1.8022 21.3502 2.22603 21.774L2.2265 21.7745C2.65038 22.1979 3.16674 22.3307 3.62704 22.3304C4.05204 22.3302 4.46702 22.2177 4.79166 22.1158C4.94737 22.0669 5.10481 22.0127 5.24861 21.9633L5.28511 21.9507C5.44398 21.8961 5.58814 21.8471 5.72818 21.8043C6.01524 21.7167 6.21845 21.6774 6.36806 21.676C6.55815 21.6768 6.80859 21.7589 7.3901 21.9925C11.456 23.8612 16.4217 23.1339 19.7783 19.7769C24.0697 15.4851 24.0776 8.51891 19.7783 4.21913ZM15.9392 11.413C15.3869 11.413 14.9392 11.8607 14.9392 12.413C14.9392 12.9653 15.3869 13.413 15.9392 13.413H15.9482C16.5005 13.413 16.9482 12.9653 16.9482 12.413C16.9482 11.8607 16.5005 11.413 15.9482 11.413H15.9392ZM10.9302 12.413C10.9302 11.8607 11.3779 11.413 11.9302 11.413H11.9392C12.4915 11.413 12.9392 11.8607 12.9392 12.413C12.9392 12.9653 12.4915 13.413 11.9392 13.413H11.9302C11.3779 13.413 10.9302 12.9653 10.9302 12.413ZM7.92122 11.413C7.36893 11.413 6.92122 11.8607 6.92122 12.413C6.92122 12.9653 7.36893 13.413 7.92122 13.413H7.93022C8.4825 13.413 8.93022 12.9653 8.93022 12.413C8.93022 11.8607 8.4825 11.413 7.93022 11.413H7.92122Z" fill="#EB4F5A"/>
</svg>