<svg width="24" height="24" viewBox="0 0 24 24" fill="none" xmlns="http://www.w3.org/2000/svg">
<path d="M4.63846 3.66667L8.27692 12.3223M4.63846 3.66667L1 12.3223M4.63846 3.66667H10.35M19.3615 3.66667L15.7231 12.3223M19.3615 3.66667L23 12.3223M19.3615 3.66667H13.65M15.7231 12.3223H23M15.7231 12.3223L15.7331 12.7167C15.7832 14.6846 17.3929 16.254 19.3615 16.254V16.254C21.3302 16.254 22.9399 14.6846 22.99 12.7167L23 12.3223M8.27692 12.3223H1M8.27692 12.3223L8.26689 12.7167C8.21684 14.6846 6.60709 16.254 4.63846 16.254V16.254C2.66984 16.254 1.06008 14.6846 1.01003 12.7167L1 12.3223M16.1462 22H12M7.85385 22H12M13.65 3.66667C13.65 4.58714 12.9113 5.33333 12 5.33333M13.65 3.66667C13.65 2.74619 12.9113 2 12 2C11.0887 2 10.35 2.74619 10.35 3.66667M12 5.33333C11.0887 5.33333 10.35 4.58714 10.35 3.66667M12 5.33333V22" stroke="#757575" stroke-width="1.5" stroke-linecap="round" stroke-linejoin="round"/>
</svg>
