<svg width="24" height="24" viewBox="0 0 24 24" fill="none" xmlns="http://www.w3.org/2000/svg">
    <path fill-rule="evenodd" clip-rule="evenodd" d="M11.9999 7.99999C9.7302 7.99999 7.89024 9.79084 7.89024 12C7.89024 14.2091 9.7302 16 11.9999 16C14.2696 16 16.1096 14.2091 16.1096 12C16.1096 9.79084 14.2696 7.99999 11.9999 7.99999ZM9.94508 12C9.94508 10.8954 10.8651 9.99998 11.9999 9.99998C13.1348 9.99998 14.0547 10.8954 14.0547 12C14.0547 13.1045 13.1348 14 11.9999 14C10.8651 14 9.94508 13.1045 9.94508 12Z" fill="currentColor"/>
    <path fill-rule="evenodd" clip-rule="evenodd" d="M12 3C7.18592 3 3.02601 5.93093 0.480559 10.2461C-0.16019 11.3324 -0.160186 12.6677 0.48057 13.7539C3.02603 18.0691 7.18591 21 12 21C16.8141 21 20.974 18.0691 23.5194 13.7539C24.1602 12.6676 24.1602 11.3323 23.5194 10.2461C20.974 5.93089 16.8141 3 12 3ZM2.26257 11.242C4.54597 7.371 8.10982 5 12 5C15.8902 5 19.454 7.37096 21.7374 11.2419C22.0144 11.7114 22.0144 12.2885 21.7374 12.758C19.454 16.629 15.8902 19 12 19C8.1098 19 4.54598 16.629 2.26258 12.7581C1.98559 12.2886 1.98559 11.7115 2.26257 11.242Z" fill="currentColor"/>
</svg>