<svg width="24" height="32" viewBox="0 0 24 32" fill="none" xmlns="http://www.w3.org/2000/svg">
<g filter="url(#filter0_d_7451:14805)">
<path fill-rule="evenodd" clip-rule="evenodd" d="M18.7857 20.3419C18.8968 18.3948 18.9999 15.6142 18.9999 12C18.9999 8.8112 18.9197 6.52151 18.8255 4.93337C18.7652 3.91589 18.0576 3.20915 17.0607 3.14511C15.8036 3.06436 14.1326 3 11.9999 3C9.86735 3 8.19642 3.06436 6.93933 3.1451C5.94237 3.20914 5.23476 3.91593 5.17444 4.9335C5.08029 6.52165 5.00002 8.81131 5 12C4.99998 15.6142 5.10309 18.3948 5.21419 20.3419L10.2699 16.7731C11.3071 16.041 12.6928 16.041 13.73 16.7731L18.7857 20.3419ZM6.81113 1.14921C4.7967 1.2786 3.2974 2.8001 3.17794 4.81514C3.0811 6.44881 3.00002 8.77846 3 12C2.99997 17.0256 3.19727 20.4726 3.34399 22.3412C3.4031 23.0939 4.24523 23.4739 4.8621 23.0385L11.4233 18.4071C11.769 18.163 12.2309 18.163 12.5766 18.4071L19.1378 23.0385C19.7547 23.4739 20.5968 23.0939 20.6559 22.3412C20.8026 20.4726 20.9999 17.0256 20.9999 12C20.9999 8.77836 20.9189 6.44867 20.822 4.81499C20.7025 2.80002 19.2033 1.27861 17.1889 1.14922C15.8866 1.06557 14.1728 1 11.9999 1C9.8272 1 8.11343 1.06557 6.81113 1.14921Z" fill="#34363D"/>
</g>
<defs>
<filter id="filter0_d_7451:14805" x="-3" y="0" width="30" height="32" filterUnits="userSpaceOnUse" color-interpolation-filters="sRGB">
<feFlood flood-opacity="0" result="BackgroundImageFix"/>
<feColorMatrix in="SourceAlpha" type="matrix" values="0 0 0 0 0 0 0 0 0 0 0 0 0 0 0 0 0 0 127 0" result="hardAlpha"/>
<feOffset dy="5"/>
<feGaussianBlur stdDeviation="1.5"/>
<feColorMatrix type="matrix" values="0 0 0 0 0 0 0 0 0 0 0 0 0 0 0 0 0 0 0.2 0"/>
<feBlend mode="normal" in2="BackgroundImageFix" result="effect1_dropShadow_7451:14805"/>
<feBlend mode="normal" in="SourceGraphic" in2="effect1_dropShadow_7451:14805" result="shape"/>
</filter>
</defs>
</svg>
