<svg width="16" height="18" viewBox="0 0 16 18" fill="none" xmlns="http://www.w3.org/2000/svg">
    <path d="M14 7.63636C14 12.4091 8 16.5 8 16.5C8 16.5 2 12.4091 2 7.63636C2 6.0089 2.63214 4.44809 3.75736 3.2973C4.88258 2.14651 6.4087 1.5 8 1.5C9.5913 1.5 11.1174 2.14651 12.2426 3.2973C13.3679 4.44809 14 6.0089 14 7.63636Z" stroke="#757575" stroke-width="2.5" stroke-linecap="round" stroke-linejoin="round"/>
    <path d="M8 9.75C9.24264 9.75 10.25 8.74264 10.25 7.5C10.25 6.25736 9.24264 5.25 8 5.25C6.75736 5.25 5.75 6.25736 5.75 7.5C5.75 8.74264 6.75736 9.75 8 9.75Z" stroke="#757575" stroke-width="2.5" stroke-linecap="round" stroke-linejoin="round"/>
</svg>
