<svg width="24" height="24" viewBox="0 0 24 24" fill="none" xmlns="http://www.w3.org/2000/svg">
<path fill-rule="evenodd" clip-rule="evenodd" d="M11.9916 4.1712L12 4.16686L12.0087 4.17139L16.4622 6.84345L18 7.76998V18.8C18 19.3931 17.9984 19.7176 17.9794 19.9508L17.9771 19.9771L17.9507 19.9794C17.7176 19.9985 17.3931 20 16.8 20H7.2C6.60695 20 6.28244 19.9985 6.04927 19.9794L6.0229 19.9771L6.02061 19.9508C6.00156 19.7176 6 19.3931 6 18.8V7.77L7.53217 6.84688L11.9916 4.1712ZM6.50169 5.13278L1.48553 8.14248C1.01195 8.42663 0.858388 9.04089 1.14254 9.51447C1.42668 9.98805 2.04094 10.1416 2.51452 9.85746L4 8.96618V18.8C4 19.9202 4 20.4802 4.21799 20.908C4.40973 21.2844 4.71569 21.5903 5.09202 21.7821C5.51984 22 6.0799 22 7.2 22H16.8C17.9201 22 18.4802 22 18.908 21.7821C19.2843 21.5903 19.5903 21.2844 19.782 20.908C20 20.4802 20 19.9202 20 18.8V8.96614L21.4855 9.85746C21.9591 10.1416 22.5734 9.98805 22.8575 9.51447C23.1417 9.04089 22.9881 8.42663 22.5145 8.14248L17.4926 5.12932L13.6514 2.81504C13.3721 2.64678 13.1578 2.51766 12.9762 2.42057C12.9338 2.39686 12.8908 2.3748 12.8472 2.35441C12.696 2.28065 12.565 2.23155 12.4304 2.20189C12.1469 2.13941 11.8531 2.13941 11.5696 2.20189C11.4346 2.23163 11.3033 2.28091 11.1516 2.35499C11.1088 2.37505 11.0666 2.39671 11.0249 2.41996C10.8431 2.51712 10.6285 2.64643 10.3486 2.81504L6.50169 5.13278Z" fill="currentColor"/>
<path fill-rule="evenodd" clip-rule="evenodd" d="M13 20V16C13 15.4477 12.5523 15 12 15C11.4477 15 11 15.4477 11 16V20H13ZM12 13C10.3431 13 9 14.3431 9 16V22H15V16C15 14.3431 13.6569 13 12 13Z" fill="currentColor"/>
</svg>
