<svg width="24" height="24" viewBox="0 0 24 24" fill="none" xmlns="http://www.w3.org/2000/svg">
<path d="M5.56036 11.7537C5.56034 11.3888 5.58473 11.0243 5.63336 10.6627C5.62536 10.7167 5.61936 10.7697 5.61136 10.8237C5.70927 10.1048 5.903 9.4022 6.18736 8.7347L6.12636 8.8797C6.28659 8.50326 6.47582 8.13983 6.69235 7.7927C6.79969 7.61936 6.91336 7.45037 7.03336 7.2857C7.06336 7.2437 7.09636 7.2007 7.13336 7.1587C7.14743 7.13634 7.16385 7.11555 7.18236 7.0967C7.18236 7.0967 7.08236 7.22569 7.13536 7.15669C7.18836 7.08769 7.26736 6.9917 7.33536 6.9117C7.59901 6.60331 7.88513 6.31486 8.19136 6.0487C8.26436 5.9847 8.33935 5.9217 8.41435 5.8617C8.45535 5.8277 8.49736 5.7957 8.53836 5.7617C8.60936 5.7057 8.47736 5.8097 8.47736 5.80769C8.50357 5.78368 8.53204 5.76225 8.56236 5.7437C8.72636 5.6227 8.89536 5.5067 9.06236 5.3977C9.45508 5.14967 9.86784 4.93492 10.2964 4.7557L10.1504 4.8157C10.8173 4.53966 11.5171 4.3511 12.2324 4.2547L12.0704 4.2767C12.8006 4.18196 13.5401 4.18196 14.2704 4.2767L14.1084 4.2547C14.8327 4.35157 15.5412 4.54355 16.2154 4.8257L16.0694 4.7657C16.4499 4.92416 16.8176 5.11172 17.1694 5.3267C17.3444 5.4337 17.5144 5.5457 17.6784 5.6647C17.7174 5.6927 17.7574 5.7207 17.7964 5.7517L17.8494 5.7917C17.9364 5.8557 17.7254 5.6917 17.8104 5.7617C17.8954 5.8317 17.9764 5.89269 18.0584 5.96169C18.3692 6.22282 18.6604 6.5066 18.9294 6.8107C18.9944 6.8827 19.0574 6.95769 19.1184 7.03169L19.2014 7.1317C19.2294 7.1657 19.2924 7.2527 19.1714 7.0937L19.2204 7.15569C19.3444 7.31669 19.4594 7.48369 19.5714 7.65569C19.8223 8.04365 20.0401 8.4521 20.2224 8.8767L20.1614 8.7317C20.4448 9.39953 20.6385 10.102 20.7374 10.8207C20.7294 10.7667 20.7234 10.7137 20.7154 10.6597C20.8107 11.3829 20.8107 12.1155 20.7154 12.8387C20.7234 12.7847 20.7294 12.7317 20.7374 12.6777C20.6396 13.3951 20.4466 14.0963 20.1634 14.7627L20.2244 14.6177C20.0641 14.9941 19.8749 15.3576 19.6584 15.7047C19.5504 15.8777 19.4374 16.0467 19.3174 16.2097C19.2894 16.2477 19.2604 16.2877 19.2304 16.3267L19.1894 16.3787C19.1244 16.4657 19.2894 16.2557 19.2194 16.3407C19.1494 16.4257 19.0874 16.5057 19.0194 16.5857C18.7557 16.8941 18.4696 17.1825 18.1634 17.4487C18.0904 17.5127 18.0154 17.5757 17.9404 17.6357L17.8404 17.7187C17.8054 17.7467 17.7184 17.8097 17.8794 17.6887L17.8164 17.7367C17.6544 17.8597 17.4854 17.9737 17.3164 18.0847C16.9244 18.334 16.5123 18.5501 16.0844 18.7307L16.2304 18.6707C15.5559 18.9519 14.8475 19.1438 14.1234 19.2417L14.2854 19.2197C13.5485 19.3163 12.8022 19.3163 12.0654 19.2197L12.2274 19.2417C11.518 19.146 10.8241 18.958 10.1634 18.6827L10.3094 18.7427C9.79496 18.5275 9.30349 18.2612 8.84236 17.9477C8.73036 17.8717 8.62135 17.7907 8.51135 17.7107C8.45235 17.6667 8.62136 17.7957 8.56236 17.7507L8.52536 17.7227C8.50136 17.7047 8.47836 17.6847 8.45436 17.6667C8.39536 17.6207 8.33636 17.5717 8.27936 17.5237C8.06927 17.3464 7.86896 17.1578 7.67935 16.9587C7.57602 16.85 7.47603 16.7394 7.37936 16.6267C7.32636 16.5667 7.27936 16.5037 7.22536 16.4437C7.20336 16.4157 7.18035 16.3897 7.16035 16.3617C7.14035 16.3337 7.09935 16.2857 7.16035 16.3617C7.22135 16.4377 7.16036 16.3617 7.15236 16.3517C7.06745 16.2196 6.93905 16.1212 6.78935 16.0737C6.63119 16.0315 6.4628 16.0531 6.32036 16.1337C6.18434 16.2134 6.0841 16.3422 6.04036 16.4937C6.01772 16.5712 6.01144 16.6526 6.02194 16.7326C6.03244 16.8127 6.0595 16.8897 6.10136 16.9587C6.64981 17.6883 7.304 18.3321 8.04236 18.8687C8.76419 19.3829 9.55993 19.7845 10.4024 20.0597C12.0583 20.5987 13.8354 20.6435 15.5164 20.1887C17.0273 19.7754 18.4019 18.9695 19.5004 17.8527C20.3328 17.0078 20.9838 16.0016 21.4132 14.8959C21.8425 13.7902 22.0413 12.6083 21.9971 11.423C21.953 10.2377 21.667 9.07391 21.1566 8.00318C20.6463 6.93245 19.9224 5.97739 19.0294 5.19669C18.1343 4.41067 17.0901 3.81304 15.959 3.43949C14.8279 3.06593 13.6331 2.9241 12.446 3.02248C11.2589 3.12085 10.1038 3.45741 9.04959 4.01206C7.99541 4.5667 7.0638 5.32806 6.31036 6.2507C5.3125 7.47281 4.66576 8.94328 4.43936 10.5047C4.37872 10.9187 4.34531 11.3363 4.33936 11.7547C4.33936 11.9162 4.40352 12.0711 4.51773 12.1853C4.63194 12.2995 4.78685 12.3637 4.94836 12.3637C5.10988 12.3637 5.26477 12.2995 5.37898 12.1853C5.49319 12.0711 5.55736 11.9162 5.55736 11.7547L5.56036 11.7537Z" fill="currentColor" stroke="currentColor" stroke-width="0.3"/>
<path d="M8.69113 8.96819C8.22813 9.22419 7.76413 9.47917 7.30113 9.73717L5.09113 10.9532L4.58413 11.2332L5.41613 11.4502C5.15813 10.9912 4.90013 10.5302 4.64113 10.0722C4.23313 9.33883 3.8238 8.60917 3.41313 7.88317L3.13113 7.38317C3.05051 7.24379 2.91782 7.14217 2.76226 7.10063C2.60669 7.05909 2.441 7.08104 2.30163 7.16167C2.16226 7.24229 2.06063 7.37497 2.01909 7.53053C1.97755 7.6861 1.99951 7.8518 2.08013 7.99117C2.33813 8.45183 2.5958 8.91184 2.85313 9.37117C3.26313 10.0998 3.67247 10.8289 4.08113 11.5582L4.36313 12.0582C4.4472 12.1945 4.58061 12.2932 4.7356 12.3336C4.89058 12.374 5.05519 12.3531 5.19513 12.2752C5.65813 12.0192 6.12213 11.7642 6.58513 11.5062L8.79113 10.2872L9.29813 10.0072C9.43588 9.92616 9.53613 9.79412 9.57713 9.63967C9.61813 9.48521 9.59657 9.32083 9.51713 9.18218C9.43379 9.0456 9.30072 8.94668 9.14592 8.90621C8.99112 8.86573 8.82666 8.88686 8.68713 8.96517L8.69113 8.96819Z" fill="currentColor" stroke="currentColor" stroke-width="0.3"/>
<path d="M12.5611 7.05331V11.6813C12.5538 11.8656 12.6196 12.0453 12.7441 12.1813C12.8741 12.3203 13.0161 12.4513 13.1521 12.5813L15.0331 14.4463C15.4921 14.9013 15.9441 15.3613 16.4091 15.8103L16.4311 15.8323C16.5467 15.9438 16.701 16.0061 16.8616 16.0061C17.0222 16.0061 17.1765 15.9438 17.2921 15.8323C17.4038 15.7184 17.4664 15.5653 17.4664 15.4058C17.4664 15.2463 17.4038 15.0932 17.2921 14.9793L16.0441 13.7423L14.0551 11.7733L13.5981 11.3203C13.6571 11.4633 13.7181 11.6043 13.7771 11.7473V7.05331C13.7771 6.89206 13.713 6.73742 13.599 6.6234C13.485 6.50938 13.3304 6.44531 13.1691 6.44531C13.0079 6.44531 12.8532 6.50938 12.7392 6.6234C12.6252 6.73742 12.5611 6.89206 12.5611 7.05331Z" fill="currentColor" stroke="currentColor" stroke-width="0.3"/>
</svg>
