<svg width="24" height="24" viewBox="0 0 24 24" fill="none" xmlns="http://www.w3.org/2000/svg">
    <path fill-rule="evenodd" clip-rule="evenodd" d="M1 4C1 2.89543 1.89543 2 3 2H21C22.1046 2 23 2.89543 23 4V8C23 8.55228 22.5523 9 22 9V20C22 21.1046 21.1046 22 20 22H4C2.89543 22 2 21.1046 2 20V9C1.44772 9 1 8.55228 1 8V4ZM4 9V20H20V9H4ZM21 7V4H3V7H21ZM9 13C9 12.4477 9.44772 12 10 12H14C14.5523 12 15 12.4477 15 13C15 13.5523 14.5523 14 14 14H10C9.44772 14 9 13.5523 9 13Z" fill="currentColor"/>
</svg>