<svg width="25" height="24" viewBox="0 0 25 24" fill="none" xmlns="http://www.w3.org/2000/svg">
  <path d="M16.25 9.83281L8.75 5.50781" stroke="#1A202C" stroke-width="1.6" stroke-linecap="round" stroke-linejoin="round"/>
  <path d="M20 15.3329V8.66626C19.9997 8.37399 19.9225 8.08693 19.7763 7.83389C19.63 7.58086 19.4198 7.37073 19.1667 7.22459L13.3333 3.89126C13.08 3.74498 12.7926 3.66797 12.5 3.66797C12.2074 3.66797 11.92 3.74498 11.6667 3.89126L5.83333 7.22459C5.58022 7.37073 5.36998 7.58086 5.22372 7.83389C5.07745 8.08693 5.0003 8.37399 5 8.66626V15.3329C5.0003 15.6252 5.07745 15.9122 5.22372 16.1653C5.36998 16.4183 5.58022 16.6285 5.83333 16.7746L11.6667 20.1079C11.92 20.2542 12.2074 20.3312 12.5 20.3312C12.7926 20.3312 13.08 20.2542 13.3333 20.1079L19.1667 16.7746C19.4198 16.6285 19.63 16.4183 19.7763 16.1653C19.9225 15.9122 19.9997 15.6252 20 15.3329Z" stroke="#1A202C" stroke-width="1.6" stroke-linecap="round" stroke-linejoin="round"/>
  <path d="M5.22461 7.80078L12.4996 12.0091L19.7746 7.80078" stroke="#1A202C" stroke-width="1.6" stroke-linecap="round" stroke-linejoin="round"/>
  <path d="M12.5 20.4V12" stroke="#1A202C" stroke-width="1.6" stroke-linecap="round" stroke-linejoin="round"/>
</svg>
