<svg width="24" height="24" viewBox="0 0 24 24" fill="none" xmlns="http://www.w3.org/2000/svg">
<path d="M12.5578 15.8109C12.7171 15.9685 12.7809 16.1577 12.7809 16.3784C12.7809 16.5991 12.6853 16.7883 12.5578 16.946C12.3984 17.1036 12.2072 17.1667 11.9841 17.1667C11.761 17.1667 11.5697 17.0721 11.4104 16.946C11.251 16.7883 11.1873 16.5991 11.1873 16.3784C11.1873 16.1577 11.2829 15.9685 11.4104 15.8109C11.7291 15.5271 12.2709 15.5271 12.5578 15.8109ZM12.5578 7.86498C11.7928 7.70732 10.996 7.89651 10.3904 8.36948C9.78486 8.87398 9.43426 9.56767 9.43426 10.356C9.43426 10.7974 9.78486 11.1442 10.2311 11.1442C10.6773 11.1442 11.0279 10.7974 11.0279 10.356C11.0279 10.0722 11.1554 9.78839 11.4104 9.5992C11.6335 9.41001 11.9522 9.34695 12.2709 9.41001C12.6215 9.47307 12.9402 9.78839 13.004 10.1352C13.0996 10.5136 12.9402 10.892 12.6534 11.1442C11.761 11.8379 11.251 12.8469 11.251 13.8875C11.251 14.3289 11.6016 14.6757 12.0478 14.6757C12.494 14.6757 12.8446 14.3289 12.8446 13.8875C12.8446 13.3199 13.1315 12.7839 13.6414 12.4055C14.4382 11.8064 14.7888 10.8289 14.5657 9.85145C14.3426 8.84245 13.5458 8.05417 12.5578 7.86498ZM24 12.4685C24 14.7073 23.1713 16.9145 21.6414 18.7117C21.9602 19.3108 22.3745 19.8153 22.9163 20.1622C23.2988 20.4144 23.49 20.8559 23.3944 21.3288C23.2988 21.8018 22.9482 22.1171 22.4701 22.1802C22.0877 22.2432 21.7052 22.2748 21.3227 22.2748C20.1434 22.2748 19.0598 22.0225 18.0717 21.5496C16.2231 22.4955 14.1514 23 11.9841 23C5.35458 23 0 18.3018 0 12.5001C0 6.69832 5.38645 2.00016 11.9841 2.00016C18.6135 1.96863 24 6.69832 24 12.4685ZM22.4064 12.4685C22.4064 7.54967 17.753 3.54519 12.0159 3.54519C6.27888 3.54519 1.6255 7.54967 1.6255 12.4685C1.6255 17.3874 6.27888 21.3919 12.0159 21.3919C14.0558 21.3919 16 20.8874 17.7211 19.9415C17.9761 19.8153 18.2629 19.8153 18.5179 19.9415C19.251 20.3829 20.1116 20.6352 21.0996 20.6667C20.6215 20.1622 20.2709 19.5631 19.9841 18.8379C19.8884 18.5541 19.9522 18.2388 20.1434 18.0181C21.6096 16.4415 22.4064 14.5181 22.4064 12.4685Z" fill="#757575"/>
</svg>
