<svg width="24" height="24" viewBox="0 0 24 24" fill="none" xmlns="http://www.w3.org/2000/svg">
<g clip-path="url(#clip0)">
<path d="M21.0435 16.1604C20.6995 15.9801 20.2746 16.1129 20.0944 16.457C18.5387 19.427 15.4912 21.2721 12.1414 21.2721C7.20016 21.2721 3.17932 17.2569 3.16966 12.3179L3.7339 12.8822C3.8712 13.0195 4.05115 13.0881 4.23105 13.0881C4.41096 13.0881 4.59096 13.0195 4.72821 12.8822C5.00281 12.6076 5.00281 12.1624 4.72821 11.8878L2.96426 10.1239C2.68971 9.84932 2.24449 9.84932 1.9699 10.1239L0.205945 11.8878C-0.0686484 12.1624 -0.0686484 12.6076 0.205945 12.8822C0.480492 13.1568 0.925711 13.1567 1.2003 12.8822L1.76337 12.3192C1.76829 15.0841 2.84716 17.6829 4.80284 19.6386C6.76301 21.5988 9.36921 22.6783 12.1414 22.6783C16.016 22.6783 19.5408 20.5445 21.3401 17.1095C21.5203 16.7655 21.3875 16.3406 21.0435 16.1604Z" fill="#757575"/>
<path d="M23.7927 11.1203C23.5182 10.8458 23.073 10.8458 22.7984 11.1203L22.2353 11.6834C22.2303 8.91839 21.1515 6.31964 19.1958 4.36392C17.2357 2.40375 14.6295 1.32422 11.8573 1.32422C7.98264 1.32422 4.45792 3.45806 2.65857 6.89302C2.47834 7.23699 2.61114 7.66195 2.95515 7.84214C3.29903 8.02233 3.724 7.88953 3.90423 7.54556C5.46001 4.57552 8.5075 2.73047 11.8573 2.73047C16.7984 2.73047 20.8193 6.74559 20.829 11.6845L20.2648 11.1203C19.9903 10.8457 19.5451 10.8457 19.2705 11.1203C18.9959 11.3949 18.9959 11.8401 19.2705 12.1147L21.0344 13.8786C21.1717 14.0159 21.3517 14.0846 21.5316 14.0846C21.7115 14.0846 21.8915 14.016 22.0287 13.8786L23.7927 12.1147C24.0673 11.8401 24.0673 11.3949 23.7927 11.1203Z" fill="#757575"/>
<path d="M12.9625 11.1952C12.3264 10.9703 11.6229 10.6987 11.2284 10.3893C11.1044 10.2921 11.0508 10.0695 11.0949 9.83531C11.1169 9.7185 11.2197 9.32808 11.6191 9.20775C12.2748 9.01031 12.7245 9.2722 12.8874 9.39398C13.1984 9.62644 13.639 9.56283 13.8715 9.25181C14.104 8.9408 14.0404 8.50017 13.7294 8.26762C13.5818 8.15728 13.2121 7.91541 12.6821 7.79794V7.51172C12.6821 7.12341 12.3673 6.80859 11.979 6.80859C11.5907 6.80859 11.2759 7.12341 11.2759 7.51172V7.84373C11.2551 7.84955 11.2345 7.85489 11.2135 7.86122C10.4434 8.0932 9.86847 8.74983 9.71299 9.57483C9.56988 10.3342 9.81799 11.0703 10.3605 11.4958C10.8075 11.8464 11.4256 12.1434 12.4938 12.521C13.205 12.7724 13.1896 13.348 13.1499 13.5838C13.0696 14.0619 12.6674 14.5785 11.9743 14.5832C11.2947 14.588 11.0829 14.5541 10.5608 14.2125C10.2359 13.9999 9.80008 14.091 9.58746 14.416C9.37488 14.741 9.46596 15.1767 9.79094 15.3893C10.3541 15.7577 10.7695 15.9071 11.2759 15.9616V16.283C11.2759 16.6713 11.5907 16.9861 11.979 16.9861C12.3673 16.9861 12.6821 16.6713 12.6821 16.283V15.8941C13.0695 15.7875 13.4225 15.5926 13.7242 15.3154C14.1518 14.9226 14.4403 14.3904 14.5367 13.8169C14.7328 12.651 14.1001 11.5973 12.9625 11.1952Z" fill="#757575"/>
</g>
<defs>
<clipPath id="clip0">
<rect width="24" height="24" fill="white"/>
</clipPath>
</defs>
</svg>
