<svg width="139" height="139" viewBox="0 0 139 139" fill="none" xmlns="http://www.w3.org/2000/svg">
    <path d="M137.752 69.5C138.441 69.5 139.001 68.9413 138.989 68.2524C138.738 54.2584 134.266 40.655 126.145 29.2316C117.784 17.469 105.967 8.60127 92.3369 3.85912C78.7064 -0.883027 63.9377 -1.26433 50.0807 2.76815C36.2236 6.80062 23.9656 15.0468 15.0079 26.3623C6.05026 37.6777 0.837301 51.501 0.0925919 65.9137C-0.652118 80.3263 3.10836 94.6133 10.8521 106.792C18.5958 118.97 29.9387 128.436 43.3063 133.875C56.2885 139.157 70.5549 140.388 84.2331 137.42C84.9065 137.274 85.3218 136.601 85.1637 135.931C85.0055 135.26 84.3339 134.846 83.6605 134.992C70.4867 137.84 56.7489 136.651 44.2467 131.564C31.3589 126.32 20.4233 117.194 12.9575 105.453C5.49182 93.7118 1.86634 79.9377 2.58432 66.0424C3.30229 52.1472 8.3281 38.8201 16.9642 27.9109C25.6003 17.0017 37.4183 9.05153 50.7778 5.16382C64.1374 1.27611 78.3759 1.64372 91.5171 6.21563C104.658 10.7875 116.05 19.337 124.112 30.6773C131.932 41.6784 136.243 54.7766 136.493 68.2525C136.506 68.9414 137.063 69.5 137.752 69.5Z" fill="url(#paint0_linear_10501_67121)"/>
    <path d="M137.606 73.9654C138.294 74.0104 138.816 74.6045 138.758 75.2911C138.368 79.9596 137.507 84.5768 136.187 89.072C135.993 89.7331 135.292 90.0989 134.635 89.8931C133.977 89.6872 133.612 88.9876 133.806 88.3264C135.066 84.0204 135.891 79.5987 136.268 75.1278C136.326 74.4412 136.919 73.9203 137.606 73.9654Z" fill="#E890FD"/>
    <path d="M133.876 92.1745C134.526 92.4034 134.868 93.1162 134.628 93.7619C134.135 95.0852 133.602 96.3932 133.029 97.684C132.749 98.3138 132.006 98.5841 131.382 98.2934C130.757 98.0028 130.487 97.2612 130.766 96.6312C131.305 95.4137 131.808 94.1803 132.274 92.9328C132.515 92.2874 133.226 91.9456 133.876 92.1745Z" fill="#E890FD"/>
    <path d="M129.209 102.564C129.812 102.898 130.031 103.657 129.686 104.254C128.906 105.605 128.08 106.93 127.211 108.226C126.827 108.798 126.048 108.936 125.483 108.542C124.918 108.148 124.78 107.371 125.164 106.799C125.985 105.574 126.765 104.322 127.503 103.045C127.848 102.449 128.606 102.23 129.209 102.564Z" fill="#E890FD"/>
    <defs>
        <linearGradient id="paint0_linear_10501_67121" x1="0" y1="0" x2="167.562" y2="76.1551" gradientUnits="userSpaceOnUse">
            <stop stop-color="#7433FF"/>
            <stop offset="1" stop-color="#FFA3FD"/>
        </linearGradient>
    </defs>
</svg>