<svg width="24" height="24" viewBox="0 0 24 24" fill="none" xmlns="http://www.w3.org/2000/svg">
    <linearGradient id="sale-gradient">
        <stop offset="0%" stop-color="#624AF2"/>
        <stop offset="100%" stop-color="#82E8FF"/>
    </linearGradient>
    <path d="M23.0773 9.73656C22.7487 9.4078 22.6223 8.902 22.7487 8.44679C23.2037 6.72708 22.1926 4.98209 20.4739 4.50158C20.0189 4.37513 19.665 4.02107 19.5386 3.54057C19.0837 1.82086 17.3143 0.809273 15.5955 1.26449C15.1405 1.39094 14.6603 1.26449 14.3064 0.910432C13.0932 -0.303477 10.9699 -0.303477 9.75667 0.910432C9.42808 1.2392 8.92255 1.36565 8.46758 1.2392C6.74879 0.783983 4.97944 1.79557 4.52447 3.51528C4.39809 3.97049 4.04422 4.32455 3.56397 4.451C1.84517 4.93151 0.83412 6.70179 1.28909 8.4215C1.41548 8.87671 1.28909 9.35722 0.935225 9.71128C0.328593 10.3182 0 11.1275 0 11.9874C0 12.8472 0.328593 13.6565 0.935225 14.2634C1.26382 14.5922 1.3902 15.098 1.26382 15.5532C1.03633 16.3878 1.16271 17.2476 1.59241 17.981C2.02211 18.7144 2.70457 19.2455 3.53869 19.4731C3.99366 19.5996 4.34753 19.9536 4.47392 20.4341C4.7014 21.2687 5.23221 21.9515 5.96522 22.3815C6.69824 22.8114 7.58291 22.9378 8.39175 22.7102C8.84673 22.5838 9.35225 22.7102 9.68085 23.0643C10.3128 23.6965 11.1216 24 11.9557 24C12.7898 24 13.5987 23.6965 14.2306 23.0643C14.5592 22.7355 15.0647 22.6091 15.5197 22.7355C16.3538 22.9631 17.2132 22.8367 17.9462 22.4067C18.6792 21.9768 19.21 21.294 19.4375 20.4594C19.5639 20.0042 19.9178 19.6502 20.398 19.5237C21.2321 19.2961 21.9146 18.765 22.3443 18.0316C22.774 17.2982 22.8751 16.4131 22.6729 15.6038C22.5465 15.1486 22.6729 14.6428 23.0268 14.314C24.3159 13.0242 24.3159 11.0011 23.0773 9.73656ZM21.7377 12.9484C20.9288 13.7829 20.6002 14.9715 20.9035 16.059C21.0047 16.4131 20.9541 16.7671 20.7772 17.0706C20.6002 17.3741 20.3222 17.6017 19.9683 17.7028C18.8562 18.0063 17.9968 18.8662 17.6935 19.9789C17.5923 20.333 17.3901 20.6112 17.0868 20.7882C16.7835 20.9652 16.4296 21.0158 16.0758 20.9146C14.9636 20.6112 13.7756 20.9399 12.9668 21.7492C12.4612 22.255 11.6018 22.255 11.071 21.7492C10.4644 21.1423 9.63029 20.8135 8.79617 20.8135C8.51813 20.8135 8.24009 20.8388 7.96205 20.9146C7.60818 21.0158 7.25432 20.9652 6.951 20.7882C6.64768 20.6112 6.4202 20.333 6.31909 19.9789C6.01577 18.8662 5.15638 18.0063 4.04422 17.7028C3.69035 17.6017 3.41231 17.3994 3.23537 17.0959C3.05844 16.7924 3.00789 16.4384 3.10899 16.0843C3.41231 14.9715 3.08372 13.7829 2.27487 12.9737C2.02211 12.7208 1.89573 12.392 1.89573 12.0379C1.89573 11.6839 2.02211 11.3551 2.30015 11.0769C3.10899 10.2676 3.43758 9.07903 3.13427 7.96628C2.95733 7.25817 3.36176 6.52476 4.09477 6.34773C5.20693 6.04426 6.06633 5.1844 6.36964 4.07165C6.57185 3.36354 7.27959 2.93361 8.01261 3.13593C9.12477 3.43941 10.3128 3.11064 11.1216 2.30137C11.6271 1.79557 12.4865 1.79557 13.0173 2.30137C13.8262 3.11064 15.0142 3.43941 16.1263 3.13593C16.8341 2.9589 17.5671 3.36354 17.744 4.09694C18.0473 5.20969 18.9067 6.06955 20.0189 6.37302C20.7266 6.57534 21.1563 7.28346 20.9541 8.01686C20.6508 9.12961 20.9794 10.3182 21.7882 11.1275C22.2685 11.5827 22.2685 12.4426 21.7377 12.9484Z"
          stroke="1A202C" stroke-width="0.3" fill="url(#sale-gradient)"/>
    <path d="M15.8745 8.16732C15.4954 7.78798 14.8887 7.78798 14.5349 8.16732L8.16522 14.5403C7.78607 14.9197 7.78607 15.5014 8.16522 15.8807C8.34215 16.0577 8.59492 16.1589 8.84768 16.1589C9.10044 16.1589 9.32793 16.0577 9.53014 15.8807L15.8998 9.50768C16.2537 9.15362 16.2537 8.54667 15.8745 8.16732Z"
          stroke="1A202C" stroke-width="0.3" fill="url(#sale-gradient)"/>
    <path d="M9.04967 10.5971C9.90121 10.5971 10.5915 9.90639 10.5915 9.05439C10.5915 8.2024 9.90121 7.51172 9.04967 7.51172C8.19813 7.51172 7.50781 8.2024 7.50781 9.05439C7.50781 9.90639 8.19813 10.5971 9.04967 10.5971Z"
          stroke="1A202C" stroke-width="0.3" fill="url(#sale-gradient)"/>
    <path d="M14.9891 16.5385C15.8407 16.5385 16.531 15.8478 16.531 14.9958C16.531 14.1438 15.8407 13.4531 14.9891 13.4531C14.1376 13.4531 13.4473 14.1438 13.4473 14.9958C13.4473 15.8478 14.1376 16.5385 14.9891 16.5385Z"
          stroke="1A202C" stroke-width="0.3" fill="url(#sale-gradient)"/>
</svg>
