<svg width="24" height="24" viewBox="0 0 24 24" fill="none" xmlns="http://www.w3.org/2000/svg">
<path fill-rule="evenodd" clip-rule="evenodd" d="M16 22C16 22.5523 16.4477 23 17 23C17.5523 23 18 22.5523 18 22L18 11C18 10.4477 17.5523 10 17 10C16.4477 10 16 10.4477 16 11L16 22ZM16 5C16 5.55228 16.4477 6 17 6C17.5523 6 18 5.55228 18 5L18 2C18 1.44772 17.5523 1 17 1C16.4477 1 16 1.44772 16 2L16 5Z" fill="#14141B"/>
<path fill-rule="evenodd" clip-rule="evenodd" d="M19 8C19 6.89543 18.1046 6 17 6C15.8954 6 15 6.89543 15 8C15 9.10457 15.8954 10 17 10C18.1046 10 19 9.10457 19 8ZM21 8C21 5.79086 19.2091 4 17 4C14.7909 4 13 5.79086 13 8C13 10.2091 14.7909 12 17 12C19.2091 12 21 10.2091 21 8Z" fill="#14141B"/>
<path fill-rule="evenodd" clip-rule="evenodd" d="M6 22C6 22.5523 6.44772 23 7 23C7.55228 23 8 22.5523 8 22L8 19C8 18.4477 7.55228 18 7 18C6.44772 18 6 18.4477 6 19L6 22ZM6 13C6 13.5523 6.44771 14 7 14C7.55228 14 8 13.5523 8 13L8 2C8 1.44772 7.55228 1 7 1C6.44771 1 6 1.44772 6 2L6 13Z" fill="#14141B"/>
<path fill-rule="evenodd" clip-rule="evenodd" d="M9 16C9 14.8954 8.10457 14 7 14C5.89543 14 5 14.8954 5 16C5 17.1046 5.89543 18 7 18C8.10457 18 9 17.1046 9 16ZM11 16C11 13.7909 9.20914 12 7 12C4.79086 12 3 13.7909 3 16C3 18.2091 4.79086 20 7 20C9.20914 20 11 18.2091 11 16Z" fill="#14141B"/>
</svg>
