<svg width="24" height="24" viewBox="0 0 24 24" fill="none" xmlns="http://www.w3.org/2000/svg">
    <path d="M22.1208 9.30741L13.5265 1.49448C13.1529 1.15471 12.7711 0.982422 12.3919 0.982422C11.8657 0.982422 11.2512 1.34093 11.2512 2.35097V7.16822C8.62801 7.33062 6.1874 8.34396 4.32258 10.0569C2.30845 11.907 1.19922 14.3594 1.19922 16.9624C1.19922 18.0836 1.4062 19.1848 1.81473 20.2353C1.90405 20.4651 2.14316 20.6188 2.41129 20.6188C2.67957 20.6188 2.91852 20.4651 3.00801 20.2353C4.2644 17.0038 7.52784 14.7513 11.2512 14.4839V19.2501C11.2512 20.2601 11.8656 20.6186 12.3919 20.6186C12.7711 20.6186 13.1528 20.4465 13.5264 20.1069L22.1209 12.2936C22.5583 11.8959 22.7992 11.3657 22.7992 10.8005C22.7991 10.2354 22.5581 9.70502 22.1208 9.30741ZM21.2259 11.4802L12.6315 19.2934C12.591 19.3301 12.5549 19.3595 12.5236 19.3827C12.5193 19.3461 12.5167 19.3022 12.5167 19.2502V13.8824C12.5167 13.7289 12.4491 13.5814 12.3288 13.4734C12.2103 13.3669 12.0505 13.3071 11.8839 13.3071C11.8816 13.3071 11.8792 13.3073 11.8769 13.3073C9.62321 13.3301 7.47098 13.9777 5.65297 15.18C4.37943 16.0222 3.33776 17.0886 2.58036 18.3153C2.50357 17.8699 2.46484 17.4182 2.46484 16.9624C2.46484 12.2364 6.69332 8.34875 11.8909 8.29617C12.2377 8.29272 12.5168 8.03624 12.5168 7.72089V2.35097C12.5168 2.29898 12.5195 2.25524 12.5236 2.21853C12.5549 2.24175 12.591 2.27112 12.6315 2.30797L21.2259 10.121C21.4243 10.3014 21.5336 10.5426 21.5336 10.8006C21.5334 11.0584 21.4242 11.2998 21.2259 11.4802Z" fill="currentColor" stroke="currentColor"/>
</svg>
