<svg width="24" height="24" viewBox="0 0 24 24" fill="none" xmlns="http://www.w3.org/2000/svg">
    <path fill-rule="evenodd" clip-rule="evenodd" d="M2.56988 3.58524C3.5553 1.90625 5.34756 1 7.16611 1H16.8339C18.6524 1 20.4447 1.90625 21.4301 3.58524C21.7458 4.12305 22.1026 4.76595 22.3873 5.38025C22.5294 5.68682 22.6695 6.02033 22.7778 6.35244C22.875 6.6504 23 7.10332 23 7.6C23 8.47686 22.7851 9.58945 22.0088 10.5209C21.9733 10.5636 21.937 10.6054 21.9 10.6462V18.6C21.9 21.0301 19.9301 23 17.5 23H6.5C4.06995 23 2.1 21.0301 2.1 18.6V10.6462C2.06304 10.6054 2.02675 10.5636 1.99116 10.5209C1.21495 9.58945 1 8.47686 1 7.6C1 7.10332 1.12495 6.65039 1.22216 6.35244C1.3305 6.02033 1.47061 5.68682 1.61269 5.38025C1.89739 4.76595 2.25423 4.12305 2.56988 3.58524ZM4.3 11.8868V18.6C4.3 19.815 5.28497 20.8 6.5 20.8H8.7V17.5C8.7 15.6775 10.1775 14.2 12 14.2C13.8225 14.2 15.3 15.6775 15.3 17.5V20.8H17.5C18.715 20.8 19.7 19.815 19.7 18.6V11.8868C19.3475 11.9626 18.979 12 18.6 12C17.3145 12 16.3184 11.4006 15.679 10.8654C15.461 10.6829 15.139 10.6829 14.921 10.8654C14.2816 11.4006 13.2855 12 12 12C10.7145 12 9.71837 11.4006 9.07905 10.8654C8.86104 10.6829 8.53896 10.6829 8.32095 10.8654C7.68163 11.4006 6.68546 12 5.4 12C5.02098 12 4.65248 11.9626 4.3 11.8868ZM4.46724 4.69882C5.02573 3.74724 6.06274 3.2 7.16611 3.2H16.8339C17.9373 3.2 18.9743 3.74724 19.5328 4.69882C20.1324 5.72056 20.8 6.99406 20.8 7.6C20.8 8.7 20.25 9.8 18.6 9.8C17.4431 9.8 16.5566 8.71846 16.1301 8.07202C15.9444 7.79068 15.6371 7.6 15.3 7.6C14.9629 7.6 14.6556 7.79068 14.4699 8.07202C14.0434 8.71846 13.1569 9.8 12 9.8C10.8431 9.8 9.9566 8.71846 9.53005 8.07202C9.34441 7.79068 9.03708 7.6 8.7 7.6C8.36292 7.6 8.05559 7.79068 7.86995 8.07202C7.4434 8.71846 6.55689 9.8 5.4 9.8C3.75 9.8 3.2 8.7 3.2 7.6C3.2 6.99406 3.86757 5.72056 4.46724 4.69882ZM13.1 17.5V20.8H10.9V17.5C10.9 16.8925 11.3925 16.4 12 16.4C12.6075 16.4 13.1 16.8925 13.1 17.5Z" fill="currentColor"/>
</svg>