<svg width="24" height="24" viewBox="0 0 24 24" fill="none" xmlns="http://www.w3.org/2000/svg">
<path fill-rule="evenodd" clip-rule="evenodd" d="M5 18V10H3V18C3 20.2091 4.79086 22 7 22H17C19.2091 22 21 20.2091 21 18V10H19V18C19 19.1046 18.1046 20 17 20H15V17C15 15.3431 13.6569 14 12 14C10.3431 14 9 15.3431 9 17V20H7C5.89543 20 5 19.1046 5 18ZM11 20H13V17C13 16.4477 12.5523 16 12 16C11.4477 16 11 16.4477 11 17V20Z" fill="#2975FF"/>
<path fill-rule="evenodd" clip-rule="evenodd" d="M7.60555 2C5.95232 2 4.323 2.82386 3.42716 4.35022C3.14021 4.83914 2.81581 5.42359 2.55699 5.98204C2.42783 6.26075 2.30045 6.56394 2.20196 6.86585C2.1136 7.13672 2 7.54847 2 8C2 8.79714 2.19541 9.80859 2.90106 10.6554C3.66018 11.5663 4.76904 12 6 12C7.1686 12 8.07421 11.4551 8.65541 10.9686C8.8536 10.8027 9.1464 10.8027 9.34459 10.9686C9.92579 11.4551 10.8314 12 12 12C13.1686 12 14.0742 11.4551 14.6554 10.9686C14.8536 10.8027 15.1464 10.8027 15.3446 10.9686C15.9258 11.4551 16.8314 12 18 12C19.231 12 20.3398 11.5663 21.0989 10.6554C21.8046 9.80859 22 8.79714 22 8C22 7.54847 21.8864 7.13672 21.798 6.86585C21.6995 6.56394 21.5722 6.26075 21.443 5.98204C21.1842 5.42359 20.8598 4.83914 20.5728 4.35022C19.677 2.82386 18.0477 2 16.3944 2H7.60555ZM7.60555 4C6.60249 4 5.65975 4.49749 5.15203 5.36256C4.60688 6.29142 4 7.44915 4 8C4 9 4.5 10 6 10C7.05172 10 7.85764 9.01679 8.24541 8.42911C8.41417 8.17334 8.69357 8 9 8C9.30643 8 9.58583 8.17334 9.75459 8.42911C10.1424 9.01679 10.9483 10 12 10C13.0517 10 13.8576 9.01679 14.2454 8.42911C14.4142 8.17334 14.6936 8 15 8C15.3064 8 15.5858 8.17334 15.7546 8.42911C16.1424 9.01679 16.9483 10 18 10C19.5 10 20 9 20 8C20 7.44915 19.3931 6.29142 18.848 5.36256C18.3403 4.49749 17.3975 4 16.3944 4H7.60555Z" fill="#2975FF"/>
</svg>
