

<svg class="MuiSvgIcon-root MuiSvgIcon-fontSizeInherit" focusable="false" viewBox="0 0 24 24" aria-hidden="true">
    <path fill-rule="evenodd" clip-rule="evenodd" d="M21.5848 10.5522C22.397 9.76828 21.9504 8.40015 20.8282 8.23717L16.286 7.57951C15.8405 7.51523 15.4564 7.23749 15.2575 6.83692L13.227 2.75666C12.7248 1.74778 11.2752 1.74778 10.7731 2.75666L8.74375 6.83692C8.54475 7.23749 8.15949 7.51523 7.71406 7.57951L3.17185 8.23717C2.0496 8.40015 1.60302 9.76828 2.4152 10.5522L5.6998 13.7269C6.02259 14.0391 6.16952 14.4878 6.09316 14.9285L5.31916 19.4105C5.12711 20.5192 6.30026 21.3651 7.30334 20.8406L11.3631 18.723C11.7622 18.5153 12.2389 18.5153 12.6369 18.723L16.6967 20.8406C17.6998 21.3651 18.873 20.5192 18.682 19.4105L17.9068 14.9285C17.8306 14.4878 17.9775 14.0391 18.3003 13.7269L21.5848 10.5522ZM17.6965 19.5802L16.9215 15.0991C16.7885 14.3306 17.0455 13.5493 17.6051 13.0081L20.8898 9.83316C21.0952 9.63496 20.9963 9.27239 20.6849 9.22685L16.1432 8.56926C15.3743 8.45815 14.7076 7.97787 14.3618 7.28171L12.3317 3.20223C12.1976 2.93268 11.8028 2.93259 11.6684 3.20197M11.6684 3.20197L10.6539 5.2419L9.63933 7.28183C9.29298 7.97867 8.62498 8.45826 7.85735 8.56919L3.31557 9.22679C3.00377 9.27207 2.90428 9.63443 3.10967 9.83266L6.39478 13.0078C6.95424 13.5489 7.21153 14.3303 7.07858 15.0987L6.30458 19.5807C6.25684 19.8562 6.556 20.1029 6.83995 19.9544L6.84087 19.954L10.9006 17.8364C11.5886 17.4783 12.4111 17.4772 13.0994 17.8364L17.1601 19.9544C17.4436 20.1027 17.7442 19.857 17.6965 19.5802" />
</svg>


