<svg width="17" height="18" viewBox="0 0 17 18" fill="none" xmlns="http://www.w3.org/2000/svg">
    <path d="M1 7.12226C1 8.52752 2.13919 9.66671 3.54445 9.66671V9.66671C4.22488 9.66671 4.83947 10.0733 5.10561 10.6995L7.25543 15.7579C7.40372 16.1068 7.74615 16.3334 8.12527 16.3334V16.3334C9.25643 16.3334 10.1344 15.3466 10.0027 14.2231L9.79545 12.4546C9.70471 11.6802 10.3098 11 11.0895 11H12.3561C14.3493 11 15.7883 9.09233 15.2407 7.17588L14.2883 3.84254C13.9204 2.55464 12.7432 1.66671 11.4038 1.66671H4C2.34315 1.66671 1 3.00985 1 4.66671V7.12226Z" stroke="#757575" stroke-width="2"/>
    <path d="M4.33325 1.66663V10.3333" stroke="#757575" stroke-width="2"/>
</svg>