<svg width="17" height="18" viewBox="0 0 17 18" fill="none" xmlns="http://www.w3.org/2000/svg">
    <path d="M1 10.8777C1 9.47248 2.13919 8.33329 3.54445 8.33329V8.33329C4.22488 8.33329 4.83947 7.9267 5.10561 7.30048L7.25543 2.24208C7.40372 1.89317 7.74615 1.66663 8.12527 1.66663V1.66663C9.25643 1.66663 10.1344 2.65344 10.0027 3.77691L9.79545 5.54541C9.70471 6.31978 10.3098 6.99996 11.0895 6.99996H12.3561C14.3493 6.99996 15.7883 8.90767 15.2407 10.8241L14.2883 14.1575C13.9204 15.4454 12.7432 16.3333 11.4038 16.3333H4C2.34315 16.3333 1 14.9901 1 13.3333V10.8777Z" stroke="#757575" stroke-width="2"/>
    <path d="M4.33325 7.66663V16.3333" stroke="#757575" stroke-width="2"/>
</svg>
