<svg width="24" height="24" viewBox="0 0 24 24" fill="none" xmlns="http://www.w3.org/2000/svg">
    <path fill-rule="evenodd" clip-rule="evenodd" d="M3 13C3 11.8954 3.89543 11 5 11H19C20.1046 11 21 11.8954 21 13V21C21 22.1046 20.1046 23 19 23H5C3.89543 23 3 22.1046 3 21V13ZM19 13H5V21H19V13Z" fill="#EB4F5A"/>
    <path fill-rule="evenodd" clip-rule="evenodd" d="M1 7C1 5.89543 1.89543 5 3 5H21C22.1046 5 23 5.89543 23 7V11C23 12.1046 22.1046 13 21 13H3C1.89543 13 1 12.1046 1 11V7ZM21 7H3V11H21V7Z" fill="#EB4F5A"/>
    <path fill-rule="evenodd" clip-rule="evenodd" d="M9.42531 3.02455C9.33773 3.00191 9.26314 3.00006 9 3.00006C8.44772 3.00006 8 3.44777 8 4.00006C8 4.55234 8.44772 5.00006 9 5.00006H11.0068C11.0061 4.9985 11.0053 4.99694 11.0046 4.99538C10.834 4.6347 10.6393 4.26635 10.4331 3.94847C10.2193 3.61872 10.0298 3.40117 9.88609 3.28937C9.63154 3.0914 9.49429 3.04238 9.42531 3.02455ZM9 7.00006C7.34315 7.00006 6 5.65691 6 4.00006C6 2.3432 7.34315 1.00006 9 1.00006C9.01639 1.00006 9.03371 0.999991 9.0519 0.999921C9.25825 0.999132 9.57655 0.997914 9.9258 1.08818C10.3244 1.19122 10.7044 1.39216 11.1139 1.71063C11.5149 2.02247 11.8478 2.45425 12.1111 2.8602C12.1585 2.9332 12.2048 3.0073 12.25 3.08206C12.2952 3.0073 12.3415 2.9332 12.3889 2.8602C12.6522 2.45425 12.9851 2.02247 13.3861 1.71063C13.7956 1.39216 14.1756 1.19122 14.5742 1.08818C14.9234 0.997914 15.2418 0.999132 15.4481 0.999921C15.4663 0.999991 15.4836 1.00006 15.5 1.00006C17.1569 1.00006 18.5 2.3432 18.5 4.00006C18.5 5.65691 17.1569 7.00006 15.5 7.00006H9ZM13.4932 5.00006H15.5C16.0523 5.00006 16.5 4.55234 16.5 4.00006C16.5 3.44777 16.0523 3.00006 15.5 3.00006C15.2369 3.00006 15.1623 3.00191 15.0747 3.02455C15.0057 3.04238 14.8685 3.0914 14.6139 3.28937C14.4702 3.40117 14.2807 3.61872 14.0669 3.94847C13.8607 4.26635 13.666 4.6347 13.4954 4.99538C13.4947 4.99694 13.4939 4.9985 13.4932 5.00006Z" fill="#EB4F5A" />
</svg>