<svg width="17" height="19" viewBox="0 0 17 19" fill="none" xmlns="http://www.w3.org/2000/svg">
<path d="M3.5 1.1665L1 4.49984V16.1665C1 16.6085 1.17559 17.0325 1.48816 17.345C1.80072 17.6576 2.22464 17.8332 2.66667 17.8332H14.3333C14.7754 17.8332 15.1993 17.6576 15.5118 17.345C15.8244 17.0325 16 16.6085 16 16.1665V4.49984L13.5 1.1665H3.5Z" stroke="#EB4F5A" stroke-width="1.6" stroke-linecap="round" stroke-linejoin="round"/>
    <path d="M11.8334 7.8335C11.8334 8.71755 11.4822 9.5654 10.857 10.1905C10.2319 10.8156 9.38408 11.1668 8.50002 11.1668C7.61597 11.1668 6.76812 10.8156 6.143 10.1905C5.51788 9.5654 5.16669 8.71755 5.16669 7.8335" stroke="#EB4F5A" stroke-width="1.6" stroke-linecap="round" stroke-linejoin="round"/>
    <path d="M1 4.5H16" stroke="#EB4F5A" stroke-width="1.6" stroke-linecap="round" stroke-linejoin="round"/>
</svg>
