<svg width="16" height="16" viewBox="0 0 16 16" fill="none" xmlns="http://www.w3.org/2000/svg">
    <path fill-rule="evenodd" clip-rule="evenodd" d="M8.73617 2.78532L9.95445 5.21916C10.0738 5.45809 10.3043 5.62377 10.5716 5.66211L13.2969 6.05439C13.9702 6.15161 14.2382 6.96768 13.7509 7.43528L11.7801 9.32894C11.5864 9.51516 11.4983 9.78285 11.5441 10.0457L12.0092 12.7192C12.1237 13.3805 11.4198 13.8851 10.818 13.5722L8.38214 12.3091C8.14335 12.1852 7.85735 12.1852 7.61786 12.3091L5.182 13.5722C4.58015 13.8851 3.87626 13.3805 3.9915 12.7192L4.4559 10.0457C4.50171 9.78285 4.41355 9.51516 4.21988 9.32894L2.24912 7.43528C1.76181 6.96768 2.02976 6.15161 2.70311 6.05439L5.42843 5.66211C5.69569 5.62377 5.92685 5.45809 6.04625 5.21916L7.26383 2.78532C7.5651 2.18354 8.4349 2.18354 8.73617 2.78532Z" fill="white"/>
</svg>