<svg width="17" height="19" viewBox="0 0 17 19" fill="none" xmlns="http://www.w3.org/2000/svg">
    <path d="M16 12.8334V6.16675C15.9997 5.87448 15.9225 5.58742 15.7763 5.33438C15.63 5.08134 15.4198 4.87122 15.1667 4.72508L9.33333 1.39175C9.07997 1.24547 8.79256 1.16846 8.5 1.16846C8.20744 1.16846 7.92003 1.24547 7.66667 1.39175L1.83333 4.72508C1.58022 4.87122 1.36998 5.08134 1.22372 5.33438C1.07745 5.58742 1.0003 5.87448 1 6.16675V12.8334C1.0003 13.1257 1.07745 13.4127 1.22372 13.6658C1.36998 13.9188 1.58022 14.1289 1.83333 14.2751L7.66667 17.6084C7.92003 17.7547 8.20744 17.8317 8.5 17.8317C8.79256 17.8317 9.07997 17.7547 9.33333 17.6084L15.1667 14.2751C15.4198 14.1289 15.63 13.9188 15.7763 13.6658C15.9225 13.4127 15.9997 13.1257 16 12.8334Z" stroke="#EB4F5A" stroke-width="1.6" stroke-linecap="round" stroke-linejoin="round"/>
    <path d="M1.22498 5.2998L8.49998 9.50814L15.775 5.2998" stroke="#EB4F5A" stroke-width="1.6" stroke-linecap="round" stroke-linejoin="round"/>
    <path d="M8.5 17.9V9.5" stroke="#EB4F5A" stroke-width="1.6" stroke-linecap="round" stroke-linejoin="round"/>
</svg>
