<svg class="MuiSvgIcon-root MuiSvgIcon-fontSizeInherit" focusable="false" aria-hidden="true" width="1em" height="1em" viewBox="0 0 24 24">
    <path fill-rule="evenodd" clip-rule="evenodd" d="M13.227 2.75666L15.2575 6.83692C15.4564 7.23749 15.8405 7.51523 16.286 7.57951L20.8282 8.23717C21.9504 8.40015 22.397 9.76828 21.5848 10.5522L18.3003 13.7269C17.9775 14.0391 17.8306 14.4878 17.9068 14.9285L18.682 19.4105C18.873 20.5192 17.6998 21.3651 16.6967 20.8406L12.6369 18.723C12.2389 18.5153 11.7623 18.5153 11.3631 18.723L7.30334 20.8406C6.30026 21.3651 5.12711 20.5192 5.31916 19.4105L6.09316 14.9285C6.16952 14.4878 6.02259 14.0391 5.6998 13.7269L2.4152 10.5522C1.60302 9.76828 2.0496 8.40015 3.17185 8.23717L7.71406 7.57951C8.15949 7.51523 8.54475 7.23749 8.74375 6.83692L10.7731 2.75666C11.2752 1.74778 12.7248 1.74778 13.227 2.75666Z" fill="currentColor" />
</svg>