<svg width="18" height="18" viewBox="0 0 18 18" fill="none" xmlns="http://www.w3.org/2000/svg">
<path d="M0 6.88749C0 8.46841 1.28159 9.75 2.86251 9.75C3.62799 9.75 4.3194 10.2074 4.61881 10.9119L7.03736 16.6026C7.20419 16.9951 7.58942 17.25 8.01593 17.25C9.28849 17.25 10.2762 16.1398 10.128 14.8759L9.89489 12.8864C9.7928 12.0152 10.4736 11.25 11.3507 11.25H13.2728C15.2659 11.25 16.7049 9.34229 16.1574 7.42584L14.8717 2.92584C14.5037 1.63793 13.3265 0.75 11.9871 0.75H3C1.34315 0.75 0 2.09315 0 3.75V6.88749Z" fill="#FFC123"/>
</svg>
