<svg width="18" height="18" viewBox="0 0 18 18" fill="none" xmlns="http://www.w3.org/2000/svg">
<path d="M0 11.1125C0 9.53159 1.28159 8.25 2.86251 8.25C3.62799 8.25 4.3194 7.79259 4.61881 7.08809L7.03736 1.39739C7.20419 1.00486 7.58942 0.75 8.01593 0.75C9.28849 0.75 10.2762 1.86016 10.128 3.12407L9.89489 5.11364C9.7928 5.9848 10.4736 6.75 11.3507 6.75H13.2728C15.2659 6.75 16.7049 8.65771 16.1574 10.5742L14.8717 15.0742C14.5037 16.3621 13.3265 17.25 11.9871 17.25H3C1.34315 17.25 0 15.9069 0 14.25V11.1125Z" fill="#EB4F5A"/>
</svg>
