<svg width="24" height="24" viewBox="0 0 24 24" fill="none" xmlns="http://www.w3.org/2000/svg">
  <path fill-rule="evenodd" clip-rule="evenodd" d="M19.3349 4.43934C19.9206 5.02513 19.9206 5.97487 19.3349 6.56066L14.0084 11.8871L19.3349 17.2136C19.9206 17.7993 19.9206 18.7491 19.3349 19.3349C18.7491 19.9207 17.7993 19.9207 17.2135 19.3349L11.8871 14.0084L6.56066 19.3349C5.97487 19.9206 5.02513 19.9206 4.43934 19.3349C3.85355 18.7491 3.85355 17.7993 4.43934 17.2135L9.76576 11.8871L4.43934 6.56068C3.85355 5.9749 3.85355 5.02515 4.43934 4.43936C5.02513 3.85358 5.97487 3.85358 6.56066 4.43936L11.8871 9.76579L17.2135 4.43934C17.7993 3.85355 18.7491 3.85355 19.3349 4.43934Z" fill="currentColor"/>
</svg>
