<svg width="205" height="176" viewBox="0 0 205 176" fill="none" xmlns="http://www.w3.org/2000/svg">
    <path d="M70.8555 52.3186V37.7585C70.8555 23.1984 82.4689 11.2383 97.2024 11.2383C111.589 11.2383 123.549 23.025 123.549 37.7585V52.3186" stroke="#C7D2DD" stroke-width="1.8941" stroke-miterlimit="10" stroke-linecap="round" stroke-linejoin="round"/>
    <path d="M160.99 160.484C161.684 160.137 161.857 159.791 162.55 159.617" stroke="#FF78B7" stroke-width="0.6123" stroke-linecap="round" stroke-linejoin="round"/>
    <path d="M17.9883 174.352H203.977" stroke="#B1B9CC" stroke-width="2" stroke-miterlimit="10" stroke-linecap="round" stroke-linejoin="round"/>
    <path d="M1 174.352H8.62673" stroke="#B1B9CC" stroke-width="2" stroke-miterlimit="10" stroke-linecap="round" stroke-linejoin="round"/>
    <path d="M174.158 24.7617H26.4766V172.79H174.158V24.7617Z" fill="white"/>
    <path d="M174.506 24.7617H67.5586V172.79H174.333V24.7617H174.506Z" fill="#E6ECF5"/>
    <path d="M46.9301 24.7617H26.4766V172.79H46.9301V24.7617Z" fill="url(#paint0_linear)"/>
    <path d="M67.5569 172.79H26.4766V172.443L47.2767 151.816L67.5569 172.79Z" fill="#E6ECF5"/>
    <path d="M93.3851 57.696C96.3318 57.696 98.7585 55.2693 98.7585 52.3226C98.7585 49.3759 96.3318 46.9492 93.3851 46.9492C90.4384 46.9492 88.0117 49.3759 88.0117 52.3226C88.0117 55.2693 90.4384 57.696 93.3851 57.696Z" fill="#C7D2DD"/>
    <path d="M146.086 57.696C149.033 57.696 151.46 55.2693 151.46 52.3226C151.46 49.3759 149.033 46.9492 146.086 46.9492C143.14 46.9492 140.713 49.3759 140.713 52.3226C140.886 55.2693 143.14 57.696 146.086 57.696Z" fill="#C7D2DD"/>
    <path d="M93.3887 52.3186V37.7585C93.3887 23.1984 105.002 11.2383 119.736 11.2383C134.122 11.2383 146.082 23.025 146.082 37.7585V52.3186" stroke="#C7D2DD" stroke-width="1.8941" stroke-miterlimit="10" stroke-linecap="round" stroke-linejoin="round"/>
    <path d="M162.888 5.27442C166.631 2.87495 171.046 1.53125 175.749 1.53125C188.61 1.53125 199.072 11.897 199.072 24.7581C199.072 37.6193 188.61 47.985 175.749 47.985C162.888 47.985 152.426 37.6193 152.426 24.7581C152.234 16.5999 156.457 9.49749 162.888 5.27442Z" fill="url(#paint1_linear)"/>
    <path d="M175.743 35.1517C171.058 35.1517 167.076 30.945 167.076 24.6348C167.076 18.3246 171.058 14.3516 175.743 14.3516C180.428 14.3516 184.41 18.3246 184.41 24.6348C184.41 30.945 180.428 35.1517 175.743 35.1517ZM175.743 30.2438C177.383 30.2438 179.022 28.6079 179.022 24.6348C179.256 20.8954 177.383 19.0258 175.743 19.0258C174.103 19.0258 172.464 20.8954 172.464 24.6348C172.464 28.6079 174.103 30.2438 175.743 30.2438Z" fill="white"/>
    <path d="M103.055 99.8077C97.1011 99.8077 92.0995 95.9982 90.1941 90.522C89.7178 89.3315 90.4323 88.141 91.6231 87.6648C92.814 87.1886 94.0048 87.9029 94.4812 89.0934C95.672 92.6648 99.2446 95.2839 103.055 95.2839C106.866 95.2839 110.439 92.9029 111.629 89.0934C112.106 87.9029 113.297 87.1886 114.487 87.6648C115.678 88.141 116.393 89.3315 115.916 90.522C114.011 96.2363 109.01 99.8077 103.055 99.8077Z" fill="#ADB6C8"/>
    <path d="M139.016 99.8077C133.062 99.8077 128.06 95.9982 126.155 90.522C125.679 89.3315 126.393 88.141 127.584 87.6648C128.775 87.1886 129.966 87.9029 130.442 89.0934C131.633 92.6648 135.206 95.2839 139.016 95.2839C142.827 95.2839 146.4 92.9029 147.59 89.0934C148.067 87.9029 149.258 87.1886 150.448 87.6648C151.639 88.141 152.354 89.3315 151.877 90.522C149.972 96.2363 144.97 99.8077 139.016 99.8077Z" fill="#ADB6C8"/>
    <path d="M121.158 128.964C124.183 128.964 126.635 126.512 126.635 123.488C126.635 120.464 124.183 118.012 121.158 118.012C118.132 118.012 115.68 120.464 115.68 123.488C115.68 126.512 118.132 128.964 121.158 128.964Z" fill="#ADB6C8"/>
    <path d="M21.3884 8.0595V0H52.5369V8.0595L31.2826 33.7034H52.9033V41.7628H20.2891V33.7034L41.5433 8.0595H21.3884Z" fill="url(#paint2_linear)"/>
    <path d="M47.0376 68.5038V63.375H67.1925V68.5038L53.6337 84.9891H67.5589V90.1179H46.3047V84.9891L59.8634 68.5038H47.0376Z" fill="url(#paint3_linear)"/>
    <defs>
        <linearGradient id="paint0_linear" x1="36.6581" y1="28.7013" x2="36.6581" y2="170.66" gradientUnits="userSpaceOnUse">
            <stop offset="0.00289017" stop-color="#E6ECF5"/>
            <stop offset="1" stop-color="#CED7E2"/>
        </linearGradient>
        <linearGradient id="paint1_linear" x1="175.75" y1="3.145" x2="175.75" y2="29.219" gradientUnits="userSpaceOnUse">
            <stop stop-color="#B0BACC"/>
            <stop offset="1" stop-color="#969EAE"/>
        </linearGradient>
        <linearGradient id="paint2_linear" x1="36.5988" y1="1.45079" x2="36.5988" y2="24.8919" gradientUnits="userSpaceOnUse">
            <stop stop-color="#B0BACC"/>
            <stop offset="1" stop-color="#969EAE"/>
        </linearGradient>
        <linearGradient id="paint3_linear" x1="56.9335" y1="64.304" x2="56.9335" y2="79.3145" gradientUnits="userSpaceOnUse">
            <stop stop-color="#B0BACC"/>
            <stop offset="1" stop-color="#969EAE"/>
        </linearGradient>
    </defs>
</svg>
