<svg width="20" height="20" viewBox="0 0 20 20" fill="none" xmlns="http://www.w3.org/2000/svg">
<path d="M14.5 1H5.5C3.01472 1 1 3.01472 1 5.5V14.5C1 16.9853 3.01472 19 5.5 19H14.5C16.9853 19 19 16.9853 19 14.5V5.5C19 3.01472 16.9853 1 14.5 1Z" stroke="currentColor" stroke-width="2" stroke-linecap="round" stroke-linejoin="round"/>
<path d="M13.6005 9.43132C13.7116 10.1803 13.5836 10.9453 13.2349 11.6174C12.8862 12.2896 12.3343 12.8346 11.658 13.175C10.9816 13.5155 10.2151 13.634 9.46753 13.5137C8.71993 13.3934 8.0293 13.0404 7.49387 12.505C6.95844 11.9695 6.60548 11.2789 6.48518 10.5313C6.36488 9.78372 6.48338 9.01722 6.82381 8.34085C7.16425 7.66449 7.70929 7.11268 8.3814 6.76394C9.05352 6.41519 9.8185 6.28725 10.5675 6.39832C11.3315 6.51161 12.0389 6.86764 12.585 7.41379C13.1312 7.95995 13.4872 8.66729 13.6005 9.43132Z" stroke="currentColor" stroke-width="2" stroke-linecap="round" stroke-linejoin="round"/>
<path d="M14.9492 5.05078H14.9575" stroke="currentColor" stroke-width="2" stroke-linecap="round" stroke-linejoin="round"/>
</svg>
