<svg width="36" height="36" viewBox="0 0 36 36" fill="none" xmlns="http://www.w3.org/2000/svg">
<path d="M36 16.359V34.4422C36 35.3022 35.3022 36 34.4422 36H16.359C7.32252 36 0 28.6755 0 19.641V16.359C0 7.32252 7.32455 0 16.359 0H19.641C28.6755 0 36 7.32455 36 16.359Z" fill="#EB4F5A"/>
<path d="M21.9696 30.3613H18.1055C11.213 30.3613 5.60449 24.7528 5.60449 17.8603C5.60449 10.9678 11.213 5.35931 18.1055 5.35931C24.998 5.35931 30.6065 10.9678 30.6065 17.8603C30.6065 21.2072 29.3002 24.3512 26.929 26.7122C26.2739 27.3654 25.213 27.3634 24.5578 26.7062C23.9047 26.051 23.9067 24.9901 24.5639 24.335C26.2982 22.6068 27.2556 20.3066 27.2556 17.8583C27.2556 12.8137 23.1522 8.71023 18.1075 8.71023C13.0629 8.71023 8.95946 12.8137 8.95946 17.8583C8.95946 22.9029 13.0629 27.0064 18.1075 27.0064H21.9716C22.8966 27.0064 23.6471 27.7569 23.6471 28.6818C23.6471 29.6068 22.8945 30.3613 21.9696 30.3613Z" fill="white"/>
<path d="M28.9311 30.385C28.5031 30.385 28.0731 30.2207 27.7465 29.8942L21.3449 23.4925C20.6897 22.8374 20.6897 21.7765 21.3449 21.1213C22.0001 20.4662 23.0609 20.4662 23.7161 21.1213L30.1177 27.523C30.7729 28.1781 30.7729 29.239 30.1177 29.8942C29.7891 30.2207 29.3591 30.385 28.9311 30.385Z" fill="white"/>
</svg>
