<svg width="16" height="19" viewBox="0 0 16 19" fill="none" xmlns="http://www.w3.org/2000/svg">
    <path d="M14 8.13636C14 12.9091 8 17 8 17C8 17 2 12.9091 2 8.13636C2 6.5089 2.63214 4.94809 3.75736 3.7973C4.88258 2.64651 6.4087 2 8 2C9.5913 2 11.1174 2.64651 12.2426 3.7973C13.3679 4.94809 14 6.5089 14 8.13636Z" stroke="#1A202C" stroke-width="2.5" stroke-linecap="round" stroke-linejoin="round"/>
    <path d="M8 10.25C9.24264 10.25 10.25 9.24264 10.25 8C10.25 6.75736 9.24264 5.75 8 5.75C6.75736 5.75 5.75 6.75736 5.75 8C5.75 9.24264 6.75736 10.25 8 10.25Z" stroke="#1A202C" stroke-width="2.5" stroke-linecap="round" stroke-linejoin="round"/>
</svg>
