<svg width="24" height="24" viewBox="0 0 24 24" fill="none" xmlns="http://www.w3.org/2000/svg">
    <path fill-rule="evenodd" clip-rule="evenodd" d="M20.8 12C20.8 16.8601 16.8601 20.8 12 20.8C7.13989 20.8 3.2 16.8601 3.2 12C3.2 7.13989 7.13989 3.2 12 3.2C16.8601 3.2 20.8 7.13989 20.8 12ZM23 12C23 18.0751 18.0751 23 12 23C5.92487 23 1 18.0751 1 12C1 5.92487 5.92487 1 12 1C18.0751 1 23 5.92487 23 12ZM9.54359 9.65217C10.0695 9.95636 10.7424 9.77666 11.0466 9.2508C12.0993 7.72694 14.1341 9.756 12.4658 10.7478C12.1659 10.9261 11.7737 11.2228 11.4754 11.5863C11.193 11.9305 10.9336 12.4039 10.9031 12.9856C10.8992 13.0232 10.8972 13.0614 10.8972 13.1C10.8972 13.7075 11.3897 14.2 11.9972 14.2C12.8357 14.2 12.9953 13.7545 13.1563 13.305C13.2599 13.0159 13.3642 12.725 13.6501 12.55C14.5594 11.9934 15.3001 11.0075 15.3001 9.8C15.3001 7.97746 13.8226 6.5 12.0001 6.5C10.7772 6.5 9.71115 7.1657 9.14223 8.1492C8.83803 8.67507 9.01773 9.34797 9.54359 9.65217ZM10.8972 16.4C10.8972 15.7925 11.3897 15.3 11.9972 15.3C12.6047 15.3 13.0972 15.7925 13.0972 16.4C13.0972 17.0075 12.6047 17.5 11.9972 17.5C11.3897 17.5 10.8972 17.0075 10.8972 16.4Z" fill="currentColor"/>
</svg>