<svg width="12" height="13" viewBox="0 0 12 13" fill="none" xmlns="http://www.w3.org/2000/svg">
  <linearGradient x1="60%" y1="50%" x2="0" y2="50%" id="gradient">
    <stop class="gradient__star-secondary" offset="0"/>
    <stop class="gradient__star" offset="100%"/>
  </linearGradient>
<path fill-rule="evenodd" clip-rule="evenodd" d="M6.73617 1.28471L7.95445 3.71854C8.07384 3.95748 8.30431 4.12316 8.57157 4.1615L11.2969 4.55378C11.9702 4.651 12.2382 5.46707 11.7509 5.93467L9.78012 7.82833C9.58645 8.01455 9.49829 8.28224 9.5441 8.54513L10.0092 11.2186C10.1237 11.8799 9.41985 12.3845 8.818 12.0716L6.38214 10.8085C6.14335 10.6846 5.85735 10.6846 5.61786 10.8085L3.182 12.0716C2.58015 12.3845 1.87626 11.8799 1.9915 11.2186L2.4559 8.54513C2.50171 8.28224 2.41355 8.01455 2.21988 7.82833L0.24912 5.93467C-0.23819 5.46707 0.0297612 4.651 0.703109 4.55378L3.42843 4.1615C3.69569 4.12316 3.92685 3.95748 4.04625 3.71854L5.26383 1.28471C5.5651 0.682928 6.4349 0.682928 6.73617 1.28471Z" fill="#EB4F5A"/>
</svg>
