<svg width="48" height="48" viewBox="0 0 48 48" fill="none" xmlns="http://www.w3.org/2000/svg">
    <circle cx="24" cy="24" r="24" fill="white"/>
    <path fill-rule="evenodd" clip-rule="evenodd" d="M23 15C18.5817 15 15 18.5817 15 22.9999C15 27.4181 18.5817 30.9997 23 30.9997C27.4183 30.9997 31 27.4181 31 22.9999C31 18.5817 27.4183 15 23 15ZM13 22.9999C13 17.4771 17.4772 13 23 13C28.5228 13 33 17.4771 33 22.9999C33 25.4012 32.1536 27.6048 30.7428 29.3286L34.7072 33.2929C35.0977 33.6834 35.0977 34.3166 34.7072 34.7071C34.3167 35.0976 33.6835 35.0976 33.293 34.7071L29.3286 30.7428C27.6047 32.1534 25.4012 32.9997 23 32.9997C17.4772 32.9997 13 28.5227 13 22.9999ZM20 21.9999C19.4477 21.9999 19 22.4476 19 22.9999C19 23.5522 19.4477 23.9999 20 23.9999H26C26.5523 23.9999 27 23.5522 27 22.9999C27 22.4476 26.5523 21.9999 26 21.9999H20Z" fill="#222222"/>
</svg>