<svg width="48" height="48" viewBox="0 0 48 48" fill="none" xmlns="http://www.w3.org/2000/svg">
<circle cx="24" cy="24" r="24" fill="white"/>
<path fill-rule="evenodd" clip-rule="evenodd" d="M15 22.9999C15 18.5817 18.5817 15 23 15C27.4183 15 31 18.5817 31 22.9999C31 27.4181 27.4183 30.9997 23 30.9997C18.5817 30.9997 15 27.4181 15 22.9999ZM23 13C17.4772 13 13 17.4771 13 22.9999C13 28.5227 17.4772 32.9997 23 32.9997C25.4012 32.9997 27.6047 32.1534 29.3286 30.7428L33.293 34.7071C33.6835 35.0976 34.3167 35.0976 34.7072 34.7071C35.0977 34.3166 35.0977 33.6834 34.7072 33.2929L30.7428 29.3286C32.1536 27.6048 33 25.4012 33 22.9999C33 17.4771 28.5228 13 23 13ZM23 18.9999C23.5523 18.9999 24 19.4476 24 19.9999V21.9999H26C26.5523 21.9999 27 22.4476 27 22.9999C27 23.5522 26.5523 23.9999 26 23.9999H24V25.9998C24 26.5521 23.5523 26.9998 23 26.9998C22.4477 26.9998 22 26.5521 22 25.9998V23.9999H20C19.4477 23.9999 19 23.5522 19 22.9999C19 22.4476 19.4477 21.9999 20 21.9999H22V19.9999C22 19.4476 22.4477 18.9999 23 18.9999Z" fill="black"/>
</svg>
