<svg width="348" height="200" viewBox="0 0 348 200" fill="none" xmlns="http://www.w3.org/2000/svg">
<g filter="url(#filter0_b)">
<path d="M1 184V67.844C1 60.486 6.33697 54.2144 13.6001 53.0372L329.6 1.82016C338.723 0.341521 347 7.38497 347 16.6269V184C347 192.284 340.284 199 332 199H16C7.71573 199 1 192.284 1 184Z" fill="url(#paint0_linear)"/>
<path d="M0.5 67.844V184C0.5 192.56 7.43959 199.5 16 199.5H332C340.56 199.5 347.5 192.56 347.5 184V16.6269C347.5 7.0769 338.947 -0.201326 329.52 1.3266L13.5201 52.5436C6.01487 53.7601 0.5 60.2408 0.5 67.844Z" stroke="url(#paint1_radial)"/>
</g>
<defs>
<filter id="filter0_b" x="-22" y="-21.377" width="392" height="243.377" color-interpolation-filters="sRGB">
<feFlood flood-opacity="0" result="BackgroundImageFix"/>
<feGaussianBlur in="BackgroundImage" stdDeviation="11"/>
<feComposite in2="SourceAlpha" operator="in" result="effect1_backgroundBlur"/>
<feBlend in="SourceGraphic" in2="effect1_backgroundBlur" result="shape"/>
</filter>
<linearGradient id="paint0_linear" x1="22.4688" y1="181.63" x2="405.963" y2="-78.0794" gradientUnits="userSpaceOnUse">
<stop stop-color="white"/>
<stop offset="1" stop-color="#FFC9C9" stop-opacity="0.31"/>
</linearGradient>
<radialGradient id="paint1_radial" cx="0" cy="0" r="1" gradientTransform="translate(116.333 137.958) rotate(-38.3236) scale(397.757 562.919)">
<stop stop-color="#FBEAEA"/>
<stop offset="1" stop-color="white" stop-opacity="0"/>
</radialGradient>
</defs>
</svg>
