<svg width="20" height="20" viewBox="0 0 20 20" fill="none" xmlns="http://www.w3.org/2000/svg">
<path d="M14.5 1H5.5C3.01472 1 1 3.01472 1 5.5V14.5C1 16.9853 3.01472 19 5.5 19H14.5C16.9853 19 19 16.9853 19 14.5V5.5C19 3.01472 16.9853 1 14.5 1Z" stroke="black" stroke-width="2" stroke-linecap="round" stroke-linejoin="round"/>
    <path d="M8.60003 4.43254C8.7111 5.18156 8.58316 5.94653 8.23441 6.61865C7.88566 7.29077 7.33386 7.83581 6.65749 8.17624C5.98112 8.51668 5.21463 8.63518 4.46704 8.51488C3.71944 8.39458 3.02881 8.04161 2.49338 7.50618C1.95795 6.97075 1.60499 6.28013 1.48469 5.53253C1.36439 4.78494 1.48289 4.01844 1.82332 3.34208C2.16376 2.66571 2.7088 2.11391 3.38092 1.76516C4.05303 1.41641 4.81801 1.28847 5.56703 1.39954C6.33106 1.51284 7.03839 1.86886 7.58455 2.41501C8.13071 2.96117 8.48673 3.66851 8.60003 4.43254Z" stroke="black" stroke-width="2" stroke-linecap="round" stroke-linejoin="round" style="position: absolute;
    left: 35.16%;
    right: 34.84%;
    top: 34.84%;
    bottom: 35.16%;"/>
</svg>
